# xmcd
#
# Track frame offsets:
#  150
#  17782
#  39177
#  62555
#  86297
#  105050
#  133110
#  151657
#  168982
#  200410
#  228985
#
# Disc length: 3347 seconds
#
# Revision: 0
# Processed by: cddbd v1.4PL0 Copyright (c) Steve Scherf et al.
# Submitted via: AltoMP3_Maker 3.0
#
DISCID=730d110b
DTITLE=Big James - Funkin' Blues
DYEAR=1900
DGENRE=
TTITLE0=Da Blues Will Never Die
TTITLE1=Baby I'm Gone
TTITLE2=I Wanna Be Your Man
TTITLE3=I Wanna Know
TTITLE4=Messin' With My Mind
TTITLE5=I'll Never Be the Same
TTITLE6=All of Your Love
TTITLE7=Keeps Me Runnin Back
TTITLE8=Blues And Pants
TTITLE9=Cosmic Slop
TTITLE10=Palyboy Party
EXTD=
EXTT0=
EXTT1=
EXTT2=
EXTT3=
EXTT4=
EXTT5=
EXTT6=
EXTT7=
EXTT8=
EXTT9=
EXTT10=
PLAYORDER=
